<?xml version="1.0" standalone="no"?>
<!DOCTYPE svg PUBLIC "-//W3C//DTD SVG 20010904//EN"
 "http://www.w3.org/TR/2001/REC-SVG-20010904/DTD/svg10.dtd">
<svg version="1.0" xmlns="http://www.w3.org/2000/svg"
 width="78.000000pt" height="78.000000pt" viewBox="0 0 78.000000 78.000000"
 preserveAspectRatio="xMidYMid meet">
<metadata>
Created by potrace 1.14, written by Peter Selinger 2001-2017
</metadata>
<g transform="translate(0.000000,78.000000) scale(0.100000,-0.100000)"
fill="#000000" stroke="none">
<path d="M7 731 c-2 -3 -3 -159 -3 -346 l1 -340 296 -3 296 -2 40 27 c57 39
81 73 111 156 54 155 18 374 -75 462 -53 50 -68 52 -376 52 -158 0 -289 -2
-290 -6z m383 -110 c0 -6 -4 -12 -9 -15 -7 -5 -22 -49 -39 -121 -7 -28 -5
-175 2 -203 3 -12 8 -30 10 -40 2 -10 11 -35 20 -56 9 -21 16 -39 16 -40 0 0
-62 -1 -137 -1 l-138 1 -3 92 c-1 51 1 93 5 93 4 1 40 2 78 3 l70 1 3 53 3 52
-80 0 -81 0 0 95 0 95 140 0 c81 0 140 -4 140 -9z m207 -13 c48 -53 71 -136
67 -244 -2 -76 -33 -165 -68 -197 -23 -20 -62 -22 -81 -3 -19 19 -60 97 -61
119 -1 9 -3 18 -4 20 -1 1 -3 34 -5 72 -3 106 29 206 77 239 31 22 51 20 75
-6z"/>
</g>
</svg>
