<?xml version="1.0" standalone="no"?>
<!DOCTYPE svg PUBLIC "-//W3C//DTD SVG 20010904//EN"
 "http://www.w3.org/TR/2001/REC-SVG-20010904/DTD/svg10.dtd">
<svg version="1.0" xmlns="http://www.w3.org/2000/svg"
 width="260.000000pt" height="260.000000pt" viewBox="0 0 260.000000 260.000000"
 preserveAspectRatio="xMidYMid meet">
<metadata>
Created by potrace 1.14, written by Peter Selinger 2001-2017
</metadata>
<g transform="translate(0.000000,260.000000) scale(0.100000,-0.100000)"
fill="#000000" stroke="none">
<path d="M202 2300 c-4 -3 -7 -458 -7 -1011 l0 -1007 835 2 c459 2 846 6 860
9 89 23 200 99 280 193 101 118 201 357 226 539 20 148 25 367 10 470 -2 17
-7 48 -10 70 -3 22 -10 55 -15 73 -5 17 -7 32 -4 32 3 0 0 7 -7 15 -7 8 -10
15 -7 15 4 0 -7 39 -24 88 -92 259 -233 428 -414 494 -60 22 -62 22 -888 23
-455 0 -831 -2 -835 -5z m1113 -302 c3 -3 -10 -36 -29 -74 -19 -38 -46 -104
-60 -146 -23 -71 -29 -90 -42 -158 -2 -14 -6 -30 -9 -37 -18 -51 -26 -379 -12
-494 15 -135 62 -300 118 -415 21 -44 39 -82 39 -85 0 -2 -183 -4 -407 -4
l-408 0 -3 278 c-1 152 1 277 5 278 5 0 107 1 228 2 l220 2 0 150 0 150 -227
0 -228 0 0 280 0 280 405 -1 c223 0 407 -3 410 -6z m568 -35 c140 -122 232
-389 229 -668 -1 -107 -8 -188 -23 -253 -6 -26 -12 -54 -14 -62 -31 -149 -128
-318 -211 -366 -58 -34 -108 -35 -161 -1 -141 89 -240 357 -248 670 -1 69 2
106 19 240 2 21 14 70 26 110 58 194 135 312 234 357 35 16 44 17 83 5 25 -8
54 -22 66 -32z"/>
</g>
</svg>
